<svg width="235" height="38" viewBox="0 0 235 38" fill="none" xmlns="http://www.w3.org/2000/svg">
<mask id="path-1-inside-1" fill="white">
<path d="M65.2294 14.6598C64.5582 9.8125 60.8295 7 55.9929 7C50.2933 7 46 11.1548 46 18.2074C46 25.2493 50.24 29.4148 55.9929 29.4148C61.1811 29.4148 64.6222 26.0589 65.2294 21.8935L61.245 21.8722C60.7443 24.429 58.6562 25.8672 56.0461 25.8672C52.5092 25.8672 49.9737 23.2145 49.9737 18.2074C49.9737 13.2855 52.4879 10.5476 56.0568 10.5476C58.7095 10.5476 60.7869 12.0497 61.245 14.6598H65.2294Z"/>
<path d="M68.9184 29.1165H72.775V22.9482H74.6606L79.1457 29.1165H83.8119L77.6862 20.7855L83.748 12.7528H79.1031L74.1812 19.358H72.775V12.7528H68.9184V29.1165Z"/>
<path d="M86.2385 35.2528H90.0951V26.5384H90.2549C90.8621 27.7315 92.1299 29.4041 94.9424 29.4041C98.7989 29.4041 101.686 26.3466 101.686 20.956C101.686 15.5014 98.7137 12.5398 94.9317 12.5398C92.0446 12.5398 90.8408 14.2763 90.2549 15.4588H90.0311V12.7528H86.2385V35.2528ZM90.0205 20.9347C90.0205 17.7599 91.3841 15.7038 93.8664 15.7038C96.4338 15.7038 97.7549 17.8878 97.7549 20.9347C97.7549 24.0028 96.4125 26.2401 93.8664 26.2401C91.4054 26.2401 90.0205 24.1094 90.0205 20.9347Z"/>
<path d="M108.947 23.8963V12.7528H105.229V29.1165H109.202L115.733 17.9624V29.1165H119.461V12.7528H115.498L108.947 23.8963Z"/>
<path d="M127.38 12.7528H123.662V29.1165H127.38V22.5007H133.719V29.1165H137.426V12.7528H133.719V19.3366H127.38V12.7528Z"/>
<path d="M141.568 12.7528V29.1165H163.013V12.7528H159.295V25.9418H154.15V12.7528H150.432V25.9418H145.286V12.7528H141.568Z"/>
<path d="M174.287 29.4361C179.082 29.4361 182.128 26.059 182.128 20.9986C182.128 15.9276 179.082 12.5398 174.287 12.5398C169.493 12.5398 166.447 15.9276 166.447 20.9986C166.447 26.059 169.493 29.4361 174.287 29.4361ZM174.309 26.3466C171.656 26.3466 170.356 23.9815 170.356 20.9879C170.356 17.9943 171.656 15.5973 174.309 15.5973C176.919 15.5973 178.219 17.9943 178.219 20.9879C178.219 23.9815 176.919 26.3466 174.309 26.3466Z"/>
<path d="M183.868 15.9169H189.163V29.1165H192.891V15.9169H198.186V12.7528H183.868V15.9169Z"/>
<path d="M208.067 29.4361C211.881 29.4361 214.502 27.5717 215.184 24.7273L211.583 24.3224C211.061 25.7074 209.783 26.4318 208.121 26.4318C205.628 26.4318 203.976 24.7912 203.944 21.9893H215.344V20.8068C215.344 15.0646 211.892 12.5398 207.865 12.5398C203.177 12.5398 200.12 15.9808 200.12 21.0305C200.12 26.1655 203.135 29.4361 208.067 29.4361ZM203.955 19.3899C204.072 17.3018 205.617 15.544 207.918 15.544C210.134 15.544 211.626 17.1634 211.647 19.3899H203.955Z"/>
<path d="M218.846 35.2528H222.703V26.5384H222.863C223.47 27.7315 224.738 29.4041 227.55 29.4041C231.407 29.4041 234.294 26.3466 234.294 20.956C234.294 15.5014 231.321 12.5398 227.539 12.5398C224.652 12.5398 223.448 14.2763 222.863 15.4588H222.639V12.7528H218.846V35.2528ZM222.628 20.9347C222.628 17.7599 223.992 15.7038 226.474 15.7038C229.042 15.7038 230.363 17.8878 230.363 20.9347C230.363 24.0028 229.02 26.2401 226.474 26.2401C224.013 26.2401 222.628 24.1094 222.628 20.9347Z"/>
</mask>
<path d="M65.2294 14.6598C64.5582 9.8125 60.8295 7 55.9929 7C50.2933 7 46 11.1548 46 18.2074C46 25.2493 50.24 29.4148 55.9929 29.4148C61.1811 29.4148 64.6222 26.0589 65.2294 21.8935L61.245 21.8722C60.7443 24.429 58.6562 25.8672 56.0461 25.8672C52.5092 25.8672 49.9737 23.2145 49.9737 18.2074C49.9737 13.2855 52.4879 10.5476 56.0568 10.5476C58.7095 10.5476 60.7869 12.0497 61.245 14.6598H65.2294Z" fill="black"/>
<path d="M68.9184 29.1165H72.775V22.9482H74.6606L79.1457 29.1165H83.8119L77.6862 20.7855L83.748 12.7528H79.1031L74.1812 19.358H72.775V12.7528H68.9184V29.1165Z" fill="black"/>
<path d="M86.2385 35.2528H90.0951V26.5384H90.2549C90.8621 27.7315 92.1299 29.4041 94.9424 29.4041C98.7989 29.4041 101.686 26.3466 101.686 20.956C101.686 15.5014 98.7137 12.5398 94.9317 12.5398C92.0446 12.5398 90.8408 14.2763 90.2549 15.4588H90.0311V12.7528H86.2385V35.2528ZM90.0205 20.9347C90.0205 17.7599 91.3841 15.7038 93.8664 15.7038C96.4338 15.7038 97.7549 17.8878 97.7549 20.9347C97.7549 24.0028 96.4125 26.2401 93.8664 26.2401C91.4054 26.2401 90.0205 24.1094 90.0205 20.9347Z" fill="black"/>
<path d="M108.947 23.8963V12.7528H105.229V29.1165H109.202L115.733 17.9624V29.1165H119.461V12.7528H115.498L108.947 23.8963Z" fill="black"/>
<path d="M127.38 12.7528H123.662V29.1165H127.38V22.5007H133.719V29.1165H137.426V12.7528H133.719V19.3366H127.38V12.7528Z" fill="black"/>
<path d="M141.568 12.7528V29.1165H163.013V12.7528H159.295V25.9418H154.15V12.7528H150.432V25.9418H145.286V12.7528H141.568Z" fill="black"/>
<path d="M174.287 29.4361C179.082 29.4361 182.128 26.059 182.128 20.9986C182.128 15.9276 179.082 12.5398 174.287 12.5398C169.493 12.5398 166.447 15.9276 166.447 20.9986C166.447 26.059 169.493 29.4361 174.287 29.4361ZM174.309 26.3466C171.656 26.3466 170.356 23.9815 170.356 20.9879C170.356 17.9943 171.656 15.5973 174.309 15.5973C176.919 15.5973 178.219 17.9943 178.219 20.9879C178.219 23.9815 176.919 26.3466 174.309 26.3466Z" fill="black"/>
<path d="M183.868 15.9169H189.163V29.1165H192.891V15.9169H198.186V12.7528H183.868V15.9169Z" fill="black"/>
<path d="M208.067 29.4361C211.881 29.4361 214.502 27.5717 215.184 24.7273L211.583 24.3224C211.061 25.7074 209.783 26.4318 208.121 26.4318C205.628 26.4318 203.976 24.7912 203.944 21.9893H215.344V20.8068C215.344 15.0646 211.892 12.5398 207.865 12.5398C203.177 12.5398 200.12 15.9808 200.12 21.0305C200.12 26.1655 203.135 29.4361 208.067 29.4361ZM203.955 19.3899C204.072 17.3018 205.617 15.544 207.918 15.544C210.134 15.544 211.626 17.1634 211.647 19.3899H203.955Z" fill="black"/>
<path d="M218.846 35.2528H222.703V26.5384H222.863C223.47 27.7315 224.738 29.4041 227.55 29.4041C231.407 29.4041 234.294 26.3466 234.294 20.956C234.294 15.5014 231.321 12.5398 227.539 12.5398C224.652 12.5398 223.448 14.2763 222.863 15.4588H222.639V12.7528H218.846V35.2528ZM222.628 20.9347C222.628 17.7599 223.992 15.7038 226.474 15.7038C229.042 15.7038 230.363 17.8878 230.363 20.9347C230.363 24.0028 229.02 26.2401 226.474 26.2401C224.013 26.2401 222.628 24.1094 222.628 20.9347Z" fill="black"/>
<path d="M65.2294 14.6598C64.5582 9.8125 60.8295 7 55.9929 7C50.2933 7 46 11.1548 46 18.2074C46 25.2493 50.24 29.4148 55.9929 29.4148C61.1811 29.4148 64.6222 26.0589 65.2294 21.8935L61.245 21.8722C60.7443 24.429 58.6562 25.8672 56.0461 25.8672C52.5092 25.8672 49.9737 23.2145 49.9737 18.2074C49.9737 13.2855 52.4879 10.5476 56.0568 10.5476C58.7095 10.5476 60.7869 12.0497 61.245 14.6598H65.2294Z" stroke="black" stroke-width="0.6" mask="url(#path-1-inside-1)"/>
<path d="M68.9184 29.1165H72.775V22.9482H74.6606L79.1457 29.1165H83.8119L77.6862 20.7855L83.748 12.7528H79.1031L74.1812 19.358H72.775V12.7528H68.9184V29.1165Z" stroke="black" stroke-width="0.6" mask="url(#path-1-inside-1)"/>
<path d="M86.2385 35.2528H90.0951V26.5384H90.2549C90.8621 27.7315 92.1299 29.4041 94.9424 29.4041C98.7989 29.4041 101.686 26.3466 101.686 20.956C101.686 15.5014 98.7137 12.5398 94.9317 12.5398C92.0446 12.5398 90.8408 14.2763 90.2549 15.4588H90.0311V12.7528H86.2385V35.2528ZM90.0205 20.9347C90.0205 17.7599 91.3841 15.7038 93.8664 15.7038C96.4338 15.7038 97.7549 17.8878 97.7549 20.9347C97.7549 24.0028 96.4125 26.2401 93.8664 26.2401C91.4054 26.2401 90.0205 24.1094 90.0205 20.9347Z" stroke="black" stroke-width="0.6" mask="url(#path-1-inside-1)"/>
<path d="M108.947 23.8963V12.7528H105.229V29.1165H109.202L115.733 17.9624V29.1165H119.461V12.7528H115.498L108.947 23.8963Z" stroke="black" stroke-width="0.6" mask="url(#path-1-inside-1)"/>
<path d="M127.38 12.7528H123.662V29.1165H127.38V22.5007H133.719V29.1165H137.426V12.7528H133.719V19.3366H127.38V12.7528Z" stroke="black" stroke-width="0.6" mask="url(#path-1-inside-1)"/>
<path d="M141.568 12.7528V29.1165H163.013V12.7528H159.295V25.9418H154.15V12.7528H150.432V25.9418H145.286V12.7528H141.568Z" stroke="black" stroke-width="0.6" mask="url(#path-1-inside-1)"/>
<path d="M174.287 29.4361C179.082 29.4361 182.128 26.059 182.128 20.9986C182.128 15.9276 179.082 12.5398 174.287 12.5398C169.493 12.5398 166.447 15.9276 166.447 20.9986C166.447 26.059 169.493 29.4361 174.287 29.4361ZM174.309 26.3466C171.656 26.3466 170.356 23.9815 170.356 20.9879C170.356 17.9943 171.656 15.5973 174.309 15.5973C176.919 15.5973 178.219 17.9943 178.219 20.9879C178.219 23.9815 176.919 26.3466 174.309 26.3466Z" stroke="black" stroke-width="0.6" mask="url(#path-1-inside-1)"/>
<path d="M183.868 15.9169H189.163V29.1165H192.891V15.9169H198.186V12.7528H183.868V15.9169Z" stroke="black" stroke-width="0.6" mask="url(#path-1-inside-1)"/>
<path d="M208.067 29.4361C211.881 29.4361 214.502 27.5717 215.184 24.7273L211.583 24.3224C211.061 25.7074 209.783 26.4318 208.121 26.4318C205.628 26.4318 203.976 24.7912 203.944 21.9893H215.344V20.8068C215.344 15.0646 211.892 12.5398 207.865 12.5398C203.177 12.5398 200.12 15.9808 200.12 21.0305C200.12 26.1655 203.135 29.4361 208.067 29.4361ZM203.955 19.3899C204.072 17.3018 205.617 15.544 207.918 15.544C210.134 15.544 211.626 17.1634 211.647 19.3899H203.955Z" stroke="black" stroke-width="0.6" mask="url(#path-1-inside-1)"/>
<path d="M218.846 35.2528H222.703V26.5384H222.863C223.47 27.7315 224.738 29.4041 227.55 29.4041C231.407 29.4041 234.294 26.3466 234.294 20.956C234.294 15.5014 231.321 12.5398 227.539 12.5398C224.652 12.5398 223.448 14.2763 222.863 15.4588H222.639V12.7528H218.846V35.2528ZM222.628 20.9347C222.628 17.7599 223.992 15.7038 226.474 15.7038C229.042 15.7038 230.363 17.8878 230.363 20.9347C230.363 24.0028 229.02 26.2401 226.474 26.2401C224.013 26.2401 222.628 24.1094 222.628 20.9347Z" stroke="black" stroke-width="0.6" mask="url(#path-1-inside-1)"/>
<path fill-rule="evenodd" clip-rule="evenodd" d="M0 4H4H8V8H4V12H0V4ZM10 4V8H14V4H10ZM16 8V4H20V8H16ZM22 4V8H26V12H30V8V4H26H22ZM26 18V14H30V18H26ZM26 20V24H30V20H26ZM26 30V26H30V30H34V34H30V38H26V34H22V30H26ZM16 30V34H20V30H16ZM10 34V30H14V34H10ZM4 34H8V30H4V26H0V30V34H4ZM0 24V20H4V24H0ZM0 14V18H4V14H0Z" fill="#02A7EB"/>
</svg>
